# xmcd
#
# Track frame offsets: 
#        150
#        11582
#        35186
#        61625
#        113389
#        115263
#        170302
#        202893
#        208148
#
# Disc length: 3095 seconds
#
# Revision: 0
# Processed by: cddbd v1.5.2PL0 Copyright (c) Steve Scherf et al.
# Submitted via: ExactAudioCopy v0.99pb5
#
DISCID=6f0c1509
DTITLE=The Allman Brothers Band - 03-21-09 Beacon Theater (Disc1)
DYEAR=2009
DGENRE=Blues
TTITLE0=Little Martha
TTITLE1=One Way Out
TTITLE2=Statesboro Blues
TTITLE3=Black Hearted Woman
TTITLE4=Announcements
TTITLE5=The Same Thing
TTITLE6=Soulshine
TTITLE7=Announcements
TTITLE8=Little By Little
EXTD=
EXTT0=
EXTT1=
EXTT2=
EXTT3=
EXTT4=
EXTT5=
EXTT6=
EXTT7=
EXTT8=
PLAYORDER=
